<?xml version="1.0" standalone="no"?>
<!DOCTYPE svg PUBLIC "-//W3C//DTD SVG 20010904//EN" "http://www.w3.org/TR/2001/REC-SVG-20010904/DTD/svg10.dtd">
<!-- Created using Krita: http://krita.org -->
<svg xmlns="http://www.w3.org/2000/svg" 
    xmlns:xlink="http://www.w3.org/1999/xlink"
    xmlns:krita="http://krita.org/namespaces/svg/krita"
    xmlns:sodipodi="http://sodipodi.sourceforge.net/DTD/sodipodi-0.dtd"
    width="57.6pt"
    height="16.488pt"
    viewBox="0 0 57.6 16.488">
<defs/>
<path id="shape0" transform="matrix(1.00000000023136 0 0 0.999999841748383 28.800002288816 0.81458687091322)" fill="#cacaca" fill-rule="evenodd" stroke="#cccccc" stroke-width="0.50399999999996" stroke-linecap="square" stroke-linejoin="bevel" d="M1.89975 0.203647C0.863223 2.903 0.229974 4.99959 0 6.49341C0.00601624 6.6249 0.138634 6.80236 0.397854 7.02581C0.620201 7.47083 0.722025 7.8357 0.703325 8.12041C0.432321 8.30342 0.291723 8.54637 0.281529 8.84927C0.213395 10.8738 0.395552 12.3865 0.828001 13.3874C11.5878 11.9028 19.5618 10.4838 24.75 9.13041L24.7591 8.19678C24.8232 7.20317 25.0291 6.23994 25.3182 5.29453C25.3859 5.07322 25.3098 4.42844 25.09 3.36017C25.6241 3.56461 25.934 3.56113 26.0198 3.34973C26.1885 2.93423 26.5914 2.00433 27.2283 0.560029L15.8495 0C14.6547 0.239066 13.0075 0.531537 10.908 0.877413C10.2993 0.349451 9.69933 0.0897842 9.10819 0.098414C5.51665 0.150845 3.11383 0.185923 1.89975 0.203647Z"/><path id="shape1" transform="matrix(1.00000000023136 0 0 0.999999841748383 29.5560028124187 9.86399854813498)" fill="#b7b7bd" fill-rule="evenodd" stroke="#b7b7bd" stroke-width="0.50399999999996" stroke-linecap="square" stroke-linejoin="bevel" d="M0 4.104C0.116744 4.39565 0.311317 4.88173 0.583719 5.56224L3.63842 5.35859C11.1003 4.94425 18.6592 4.79666 25.758 3.384C24.8081 2.58617 23.9128 1.364 24.048 0C20.9858 1.63866 12.9698 3.00666 0 4.104Z"/><path id="shape2" transform="matrix(1.00000000023136 0 0 0.999999841748383 30.0555030722461 12.7079987441363)" fill="#8a8a9e" fill-rule="evenodd" stroke="#8a8a9e" stroke-width="0.50399999999996" stroke-linecap="square" stroke-linejoin="bevel" d="M0 2.6955C9.0365 2.75658 17.5552 2.20918 26.1887 0.524539C26.8245 0.55223 26.8292 0.268388 27.0045 0C27.4212 0.96308 26.7973 1.93704 25.1328 2.92189C25.3763 3.43875 16.9987 3.36329 0 2.6955Z"/><path id="shape01" transform="matrix(1.00000000023136 0 0 0.999999841748383 28.9814811257547 7.61129626781558)" fill="#b7b7bd" fill-rule="evenodd" stroke="#b7b7bd" stroke-width="0.50399999999996" stroke-linecap="square" stroke-linejoin="bevel" d="M0.0731853 1.98874L0.529522 1.1457C0.373161 0.639273 0.196654 0.257372 0 0L12.0225 1.1007C7.99339 1.20463 4.05446 1.50192 0.0731853 1.98874Z"/><path id="shape02" transform="matrix(1.00000000023136 0 0 0.999999841748383 49.8240020367175 0.539999911759103)" fill="#5c6b7c" fill-rule="evenodd" stroke="#5c6b7c" stroke-width="0.431999999999965" stroke-linecap="square" stroke-linejoin="bevel" d="M0 0.36C1.32 0.407581 2.64 0.479942 3.96 0L4.068 0.648C3.52086 0.59157 3.2241 0.409952 2.376 0.504C1.66696 0.6587 0.950257 0.803821 0.108 0.792C0.108 0.792 0.072 0.648 0 0.36Z"/><path id="shape03" transform="matrix(1.00000000023136 0 0 0.999999841748383 32.0743662747556 0.254558404042538)" fill="#5c6b7c" fill-rule="evenodd" stroke="#5c6b7c" stroke-width="0.359999999999971" stroke-linecap="square" stroke-linejoin="bevel" d="M0 0.470933C0.1868 0.69406 0.486442 0.89838 0.289638 1.18544L2.12564 0.933442L3.99764 1.11344C3.91167 0.8772 3.83251 0.572796 3.78019 0C3.7004 0.457782 2.44034 0.61476 0 0.470933Z"/><path id="shape04" transform="matrix(1.00000000023136 0 -0.148936175345382 0.999999841748383 40.1362674692382 2.96999960538847)" fill="#333151" fill-rule="evenodd" stroke="#333151" stroke-width="0.215999999999983" stroke-linecap="square" stroke-linejoin="bevel" d="M0.623133 0.651618L1.06861 1.008L0.789608 1.566L0.789608 2.34L1.09561 2.493L1.85161 2.268L2.31061 1.467L2.37504 0.655488L2.35561 0L2.86473 0.292742L2.93507 1.05642L2.91469 1.99826L2.8256 2.27827L3.15652 2.62193L2.81287 2.99103L2.41831 2.71102L1.6419 3.02922L0.801859 3.0674L0.114551 2.62193L0 1.85825L0.280014 1.22185Z"/><path id="shape05" transform="matrix(1.00000000023136 0 0 0.999999841748383 36.2363951313396 2.92742150841468)" fill="#333151" fill-rule="evenodd" stroke="#333151" stroke-width="0.215999999999983" stroke-linecap="square" stroke-linejoin="bevel" d="M0.987608 0.672578L1.52761 1.08658L0.789608 1.68058L0.789608 2.45458L1.09561 2.60758L1.85161 2.38258L2.31061 1.58158L2.80014 0.655488L3.19471 0L3.70383 0.292742L3.36017 1.05642L2.91469 2.11283L2.8256 2.39285L3.15652 2.7365L2.81287 3.10561L2.41831 2.8256L1.6419 3.1438L0.801859 3.18198L0.114551 2.7365L0 1.97283L0.280014 1.33643C0.280014 1.33643 0.515879 1.11515 0.987608 0.672578Z"/><path id="shape06" transform="matrix(1.00000000023136 0 0 0.999999841748383 31.7160037889552 2.10599976628909)" fill="#333151" fill-rule="evenodd" stroke="#333151" stroke-width="0.215999999999983" stroke-linecap="square" stroke-linejoin="bevel" d="M4.428 0.81L4.536 0L2.124 0L1.116 0.558L0.594 1.404L1.17 1.962L3.33 1.962L3.456 2.448L3.222 2.808L2.088 3.096L1.008 2.988L0.594 2.79L0.054 2.88L0 3.42L0.63 3.708L2.232 3.636L3.132 3.546L4.176 2.754L4.086 1.764L3.78 1.422L1.746 1.458L1.512 1.098L1.746 0.792L3.186 0.612L3.852 0.612C3.888 0.612 4.08 0.678 4.428 0.81Z"/><path id="shape07" transform="matrix(0.999999973740407 0 0 0.999999894498919 48.6706431902513 3.50099963064071)" fill="#333151" fill-rule="evenodd" stroke="#333151" stroke-width="0.215999999999983" stroke-linecap="square" stroke-linejoin="bevel" d="M0 2.41748L0.0503 1.32288L1.0041 0.378L2.1993 0L2.9534 0.432L2.7684 1.53L1.5021 2.565L0.6342 2.601L0.2894 2.58428L0 2.41748M0.5987 1.629L1.2389 0.927L1.9503 0.639L2.3202 0.819L2.3202 1.233L1.6088 2.079L0.8121 2.151L0.5987 1.629"/><path id="shape08" transform="matrix(1.00000000023136 0 0 0.999999841748383 44.64000450951 2.87999968726932)" fill="#333151" fill-rule="evenodd" stroke="#333151" stroke-width="0.215999999999983" stroke-linecap="square" stroke-linejoin="bevel" d="M0 2.952L1.422 0L2.214 0.324L2.016 0.72L2.79 0.666L3.312 0.792L3.51 1.854L2.97 3.114L2.556 3.006L2.916 1.8L2.808 1.242L2.142 1.296L1.44 1.728L0.936 2.808L0.702 3.15C0.702 3.15 0.468 3.084 0 2.952Z"/><path id="shape09" transform="matrix(1.00000000023136 0 0 0.999999841748383 45.6050759815578 7.72327795100888)" fill="#333151" fill-rule="evenodd" stroke="#333151" stroke-width="0.287999999999977" stroke-linecap="square" stroke-linejoin="bevel" d="M1.008 2.88L0 0L1.008 0.414L1.782 1.188L1.638 2.988C1.614 2.988 1.404 2.952 1.008 2.88Z"/><path id="shape01" transform="matrix(0.999999973740407 0 0 0.999999894498919 46.7537112694349 11.2869037739677)" fill="#363555" fill-rule="evenodd" stroke="#363555" stroke-width="0.143999999999988" stroke-linecap="square" stroke-linejoin="bevel" d="M0.2028 0L1.0488 0.612L0.7788 1.404L0.0048 0.792C-0.0192 0.768 0.0468 0.504 0.2028 0Z"/><path id="shape010" transform="matrix(1.00000000023136 0 0 0.999999841748383 44.4459080130251 9.80049885136077)" fill="#333151" fill-rule="evenodd" stroke="#333151" stroke-width="0.0719999999999942" stroke-linecap="square" stroke-linejoin="bevel" d="M0.967322 2.5965L0 0.356382L0.178191 0L0.636396 0.0763675L1.57826 2.21466L1.50189 2.69832C1.48492 2.69832 1.30673 2.66438 0.967322 2.5965Z"/><path id="shape11" transform="matrix(1.00000000023136 0 0 0.999999841748383 43.8480027044731 8.31599876215032)" fill="#333151" fill-rule="evenodd" stroke="#333151" stroke-width="0.143999999999988" stroke-linecap="square" stroke-linejoin="bevel" d="M0.594 1.062L0.882 0.504L0.18 0L0 0.648C0 0.648 0.198 0.786 0.594 1.062Z"/><path id="shape011" transform="matrix(1.00000000023136 0 0 0.999999841748383 41.084906042015 8.56448672407406)" fill="#333151" fill-rule="evenodd" stroke="#333151" stroke-width="0.0719999999999942" stroke-linecap="square" stroke-linejoin="bevel" d="M0.00719141 0.0968633C0.0309966 0.223542 -0.0467419 0.160633 0.0501271 0.384439C0.357539 1.09468 0.867194 2.32889 1.57909 4.08707L2.11366 4.08707L2.34277 3.60341L1.45181 2.35607L1.52818 2.30516L2.9028 3.5525L3.33555 3.47613L3.28463 2.89065L1.52818 1.64331L2.11366 0.930545L2.0373 0.421425L1.60455 0.345055L1.09543 0.981455L0.841692 0.321734C0.804357 0.176186 0.885022 0.273016 0.847687 0.127468C0.797775 -0.0671061 -0.0123164 -0.00694752 0.00719141 0.0968633Z"/><path id="shape012" transform="matrix(1.00000000023136 0 0 0.999999841748383 38.485585483681 8.24399913024844)" fill="#333151" fill-rule="evenodd" stroke="#333151" stroke-width="0.0719999999999942" stroke-linecap="square" stroke-linejoin="bevel" d="M0.920064 4.63666L0.0164252 0.808902C-0.0472287 0.539268 0.0991266 0.269634 0.0354727 0L0.442767 0L0.926428 0.283708L0.77758 0.76536L0.920064 1.88743L1.81102 1.53104L2.14194 1.68378L2.01466 2.11653L1.32735 2.37109L3.16018 4.12754L3.00744 4.68757L2.57469 4.50938L1.09825 2.82929L1.42918 4.50938L1.22553 4.76394C1.22553 4.76394 1.12371 4.72151 0.920064 4.63666Z"/><path id="shape013" transform="matrix(1.00000000023136 0 0 0.999999841748383 36.8820028263525 10.1159985460487)" fill="#333151" fill-rule="evenodd" stroke="#333151" stroke-width="0.0719999999999942" stroke-linecap="square" stroke-linejoin="bevel" d="M0 0.324L0.63 2.358L1.152 2.484L1.332 2.268L0.792 0.216L0.36 0C0.336 0 0.216 0.108 0 0.324Z"/><path id="shape12" transform="matrix(1.00000000023136 0 0 0.999999841748383 36.5889716601453 8.62953023285849)" fill="#333151" fill-rule="evenodd" stroke="#333151" stroke-width="0.287999999999977" stroke-linecap="square" stroke-linejoin="bevel" d="M0.365031 0.874469L0.828 0.362184L0.449283 0L0 0.524184C0 0.524184 0.0290312 0.622469 0.365031 0.874469Z"/><path id="shape014" transform="matrix(1.00000000023136 0 0 0.999999841748383 32.4809946267394 7.33244181832801)" fill="#333151" fill-rule="evenodd" stroke="#333151" stroke-width="0.143999999999988" stroke-linecap="square" stroke-linejoin="bevel" d="M1.27345 5.01364L0.177397 2.0114C0.189099 1.45863 0.200802 0.905867 0.212504 0.353102C0.214016 0.281684 -0.00150404 0.208976 7.91826e-06 0.137558L0.712772 0.0102782L1.09115 0.424722L1.6809 1.93491L2.85172 3.43538L3.00445 3.35901L2.56538 1.91126L2.42118 0.558638L2.15101 0.254558L2.43103 0L2.81287 0.101823L3.13383 0.619122L3.23154 1.93187L4.09905 5.06455L3.53902 5.2682L1.32436 2.28987L1.06981 2.26441L1.93531 5.06455L1.7062 5.21729C1.7062 5.21729 1.56195 5.14941 1.27345 5.01364Z"/><path id="shape015" transform="matrix(0.999999973740407 0 0 0.999999894498919 5.27400263723827 10.2059984403237)" fill="#efca93" fill-rule="evenodd" stroke="#efca93" stroke-width="0.50399999999996" stroke-linecap="square" stroke-linejoin="bevel" d="M1.17 1.638L2.826 5.382C5.21502 4.84876 6.22278 3.7066 5.8493 1.95552C5.27652 0.314523 4.16325 0.19675 3.078 0L0 1.044L0.364469 1.86007L1.17 1.638M3.6 4.518C4.396 4.28884 4.9202 3.76522 5.31 3.096C5.38437 2.2071 5.04363 1.47691 4.302 0.900001C3.32301 0.689789 2.33999 0.826464 1.548 1.404"/><path id="shape016" transform="matrix(1.00000002672231 0 0 0.99999978899785 11.6969632253258 12.0406119931894)" fill="#efca93" fill-rule="evenodd" stroke="#efca93" stroke-width="0.50399999999996" stroke-linecap="square" stroke-linejoin="bevel" d="M0.1751 0.336021L0.78604 2.14339L1.15824 2.01101L0.343654 0.0890955L0 0Z"/><path id="shape011" transform="matrix(1.00000002672231 0 0 0.99999978899785 11.3342174754238 10.8989979976478)" fill="#efca93" fill-rule="evenodd" stroke="#efca93" stroke-width="0.50399999999996" stroke-linecap="square" stroke-linejoin="bevel" d="M0.318198 0.581586L0.350018 0.206112L0.0372854 0L0 0.390667Z"/><path id="shape017" transform="matrix(0.999999973740407 0 0 0.999999894498919 13.4314121022589 10.9332820261757)" fill="#efca93" fill-rule="evenodd" stroke="#efca93" stroke-width="0.50399999999996" stroke-linecap="square" stroke-linejoin="bevel" d="M0.194591 0.775716C0.627555 0.375812 1.00365 -0.00190844 1.51194 0.429471L1.60663 1.31734L0.111099 1.59099C-0.125289 2.21988 0.0233696 2.61398 0.482591 2.81871C1.41779 2.37165 2.03482 2.19069 2.3337 2.27582C2.15717 2.16083 1.98756 2.03753 1.92879 1.78123C1.89424 1.35119 1.92109 0.855842 2.06484 0.381838L1.76496 0.0937578L1.28844 0L0.561569 0.252112L0.194591 0.775716M0.30259 1.72972C0.71659 1.43181 1.13059 1.45753 1.54459 1.51372L1.62559 1.99972C1.75474 2.31773 1.5883 2.4246 1.34896 2.4794C1.12259 2.53124 0.830997 2.53648 0.66259 2.62972C0.168719 2.4807 0.178343 2.12836 0.30259 1.72972"/><path id="shape018" transform="matrix(1.00000002672231 0 0 0.99999978899785 16.4790026699683 10.7099982491816)" fill="#efca93" fill-rule="evenodd" stroke="#efca93" stroke-width="0.50399999999996" stroke-linecap="square" stroke-linejoin="bevel" d="M0 0.260999L0.459001 0L0.490816 0.677872L1.332 0.486L1.494 1.197C1.22834 0.965711 1.01384 0.887711 0.850501 0.963C0.651544 0.967715 0.508912 1.02213 0.513001 1.206L0.423001 2.88Z"/><path id="shape019" transform="matrix(1.00000000023136 0 0 0.999999841748383 18.7107977856253 1.21751275816517)" fill="#e7cb8f" fill-rule="evenodd" stroke="#efca93" stroke-width="0.50399999999996" stroke-linecap="square" stroke-linejoin="bevel" d="M0 9.81323L0.981206 10.7165L1.73212 9.55106C-0.93214 13.8472 3.54504 13.6401 6.50509 10.5184C8.16342 8.74175 8.31774 5.25628 5.14208 2.03647C5.7283 2.16327 6.70535 2.37461 8.0732 2.67049C8.5532 2.05849 8.67076 1.16832 8.42588 0C15.0711 7.69188 -1.86516 18.7256 0.846206 11.4275C1.22893 10.3973 0.538098 10.1131 0 9.81323Z"/><path id="shape020" transform="matrix(0.894736572114289 0 0 0.733373610808978 20.4143318124451 6.21306554995373)" fill="#efca93" fill-rule="evenodd" stroke="#efca93" stroke-width="0.50399999999996" stroke-linecap="square" stroke-linejoin="bevel" d="M0.056685 1.77975C-0.0462904 1.48684 0.0185617 1.28551 0.038685 1.05975C0.386238 0.399267 0.775166 0.33872 1.15469 0.141749C2.22834 -0.0530704 2.84634 -0.0470704 3.00869 0.159749C2.90969 0.269549 2.74469 0.452549 2.51369 0.708749C2.27459 0.470171 1.80959 0.443171 1.11869 0.627749C0.367977 1.24794 0.571496 1.6508 0.893684 1.86075C1.32233 2.02442 1.89308 1.94605 2.51369 2.01375C3.02108 2.15749 3.29981 2.45367 3.52169 2.78775C3.63354 3.08196 3.57158 3.33272 3.49469 3.57975C3.32235 4.03495 2.92857 4.35728 2.39669 4.59675C1.78328 4.86455 0.88787 5.05324 0.290685 4.47075C-0.0282171 4.30965 -0.0492171 3.92865 0.227685 3.32775C0.254067 3.90884 0.465258 4.23914 0.861258 4.31864C1.4765 4.38101 2.02731 4.20971 2.51369 3.80475C2.70126 3.39069 2.56504 2.88687 2.38769 2.64375C2.06905 2.44915 2.19534 2.3171 0.965686 2.40975C0.325461 2.33556 0.0224605 2.12556 0.056685 1.77975Z"/><path id="shape021" transform="matrix(1.00000002672231 0 0 0.99999978899785 19.8270040248123 2.44376063405013)" fill="#efca93" fill-rule="evenodd" stroke="#e7cb8f" stroke-width="0.50399999999996" stroke-linecap="square" stroke-linejoin="bevel" d="M0 1.43524L0.00899916 2.80324L1.74683 0.318198L1.125 1.00739L0.0221942 0Z"/><path id="shape022" transform="matrix(0.999999973740407 0 0 0.999999894498919 15.7745921562561 6.40821622012028)" fill="#e7cb8f" fill-rule="evenodd" stroke="#efca93" stroke-width="0.50399999999996" stroke-linecap="square" stroke-linejoin="bevel" d="M1.3388 2.5837L2.27429 1.98751L3.36841 1.26878C3.30644 -0.516927 0.413323 -0.419368 0.0260433 1.572C-0.114846 2.72749 0.315903 3.41493 1.31829 3.63432C1.9332 3.67842 2.55717 3.67088 3.14916 3.19649L3.82013 2.55222L3.31729 2.3995L2.80141 3.17678C2.4681 3.29964 1.8866 3.28676 1.67077 3.08074C1.61563 3.05214 1.39614 3.12294 1.52207 2.92806C1.4571 2.82878 1.39924 2.70109 1.3388 2.5837M1.21904 2.36094C1.8215 1.95788 2.42395 1.55483 3.02641 1.15178L2.71908 0.65578C1.19123 0.174556 0.73306 0.984209 0.682613 1.96676L1.07718 2.22768"/><path id="shape023" transform="matrix(1.00000005321327 0 0 0.999999736247319 10.3605315823007 5.90575438761892)" fill="#efca93" fill-rule="evenodd" stroke="#efca93" stroke-width="0.50399999999996" stroke-linecap="square" stroke-linejoin="bevel" d="M0 0C0.606518 0.244042 1.23016 0.479521 1.37462 0.954594L1.38734 3.34744L2.43103 3.3729L3.50018 3.10561L3.65291 0.789131C3.88738 0.654907 4.10148 0.724268 4.30204 0.929138L4.35295 3.19471C4.37842 3.47895 4.46204 3.70504 4.60751 3.86929C4.93419 4.07124 5.16754 4.21549 5.30754 4.30204C5.16754 4.32495 4.93419 4.36313 4.60751 4.41659L3.84383 3.61473C3.45302 3.90884 2.88092 4.10534 2.0492 4.16203C1.15446 4.21111 0.522897 3.8774 0 3.38563C0 3.38563 0 2.25708 0 0Z"/><path id="shape024" transform="matrix(1.00000005321327 0 0 0.999999736247319 2.07000241511155 2.01101111728358)" opacity="0.98" fill="#efca93" fill-rule="evenodd" stroke="#efca93" stroke-width="0.50399999999996" stroke-linecap="square" stroke-linejoin="bevel" d="M0.768327 1.59099C1.7577 0.75642 3.18202 0.257936 4.91763 0C5.9835 0.00419691 6.72467 0.604924 7.38685 1.34916C7.12625 1.52288 6.94397 1.66882 6.84 1.78699C7.14141 1.59923 7.13226 1.275 6.81255 0.814322C6.27867 0.732747 5.8583 0.750105 5.07036 0.827315C3.97191 0.992862 2.87006 1.14279 1.88838 1.84555L1.97748 2.45649C3.35929 2.36594 4.4099 2.65755 5.49039 2.91469C6.79391 3.44185 7.46447 4.18 7.9596 4.97662C8.13378 5.32352 8.35172 5.65359 7.92142 6.23299C7.18977 7.27599 5.92823 7.78911 4.52306 8.1586C3.63938 8.36132 2.75569 8.2997 1.872 8.09599C1.00537 7.78494 0.298261 7.22975 0 6.57499L1.58291 5.91848C1.23229 6.16667 0.232688 7.43153 1.683 7.62799C2.65507 7.59827 3.61118 7.54194 4.38306 7.17855C5.85578 6.53664 6.04605 5.76103 5.994 5.23399C5.81292 4.35781 5.05489 3.76427 4.032 3.47899C3.06386 3.15884 2.05889 2.96759 1.02288 2.88499C-0.226772 2.81318 -0.311625 2.38185 0.768327 1.59099Z"/><path id="shape025" transform="matrix(1.00000005321327 0 0 0.999999736247319 0.729002351038835 0.623668075592155)" fill="#efca93" fill-rule="evenodd" stroke="#e7cb8f" stroke-width="0.50399999999996" stroke-linecap="square" stroke-linejoin="bevel" d="M1.3202 2.22739L1.341 1.08633L1.40929 0L0.505608 1.13279L0 0.510332L0.543792 1.31098Z"/>
</svg>
